<svg width="36" height="36" viewBox="0 0 36 36" fill="none" xmlns="http://www.w3.org/2000/svg">
<path fill-rule="evenodd" clip-rule="evenodd" d="M2.34961 6C2.34961 5.70163 2.46814 5.41548 2.67911 5.2045C2.89009 4.99353 3.17624 4.875 3.47461 4.875H5.24611C6.05985 4.87504 6.84617 5.16909 7.46027 5.70299C8.07438 6.23688 8.47491 6.97467 8.58811 7.7805L8.67961 8.433H29.6271C30.1872 8.43301 30.7385 8.57242 31.2313 8.83866C31.7241 9.1049 32.1429 9.48961 32.4499 9.95809C32.7569 10.4266 32.9425 10.9641 32.9899 11.5222C33.0374 12.0803 32.9452 12.6414 32.7216 13.155L28.7196 22.347C28.4573 22.9496 28.0247 23.4626 27.475 23.8228C26.9253 24.1831 26.2824 24.375 25.6251 24.375H11.5836C10.7699 24.375 9.98355 24.0809 9.36945 23.547C8.75534 23.0131 8.35481 22.2753 8.24161 21.4695L6.36061 8.094C6.32297 7.82522 6.18944 7.5791 5.98462 7.40102C5.77981 7.22294 5.51752 7.12491 5.24611 7.125H3.47611C3.17774 7.125 2.89159 7.00647 2.68061 6.7955C2.46964 6.58452 2.35111 6.29837 2.35111 6M8.99761 10.683L10.4706 21.156C10.5082 21.4248 10.6418 21.6709 10.8466 21.849C11.0514 22.0271 11.3137 22.1251 11.5851 22.125H25.6266C25.8457 22.1252 26.06 22.0614 26.2433 21.9415C26.4267 21.8216 26.571 21.6508 26.6586 21.45L30.6591 12.255C30.7332 12.084 30.7636 11.8972 30.7476 11.7116C30.7316 11.5259 30.6698 11.3471 30.5676 11.1912C30.4654 11.0354 30.3261 10.9073 30.1622 10.8186C29.9983 10.7299 29.815 10.6833 29.6286 10.683H8.99761Z" fill="black"/>
<path d="M9.05078 29.25C9.05078 28.5538 9.32734 27.8861 9.81963 27.3938C10.3119 26.9016 10.9796 26.625 11.6758 26.625C12.372 26.625 13.0397 26.9016 13.5319 27.3938C14.0242 27.8861 14.3008 28.5538 14.3008 29.25C14.3008 29.9462 14.0242 30.6139 13.5319 31.1062C13.0397 31.5984 12.372 31.875 11.6758 31.875C10.9796 31.875 10.3119 31.5984 9.81963 31.1062C9.32734 30.6139 9.05078 29.9462 9.05078 29.25ZM24.4798 26.625C23.7836 26.625 23.1159 26.9016 22.6236 27.3938C22.1313 27.8861 21.8548 28.5538 21.8548 29.25C21.8548 29.9462 22.1313 30.6139 22.6236 31.1062C23.1159 31.5984 23.7836 31.875 24.4798 31.875C25.176 31.875 25.8437 31.5984 26.3359 31.1062C26.8282 30.6139 27.1048 29.9462 27.1048 29.25C27.1048 28.5538 26.8282 27.8861 26.3359 27.3938C25.8437 26.9016 25.176 26.625 24.4798 26.625Z" fill="black"/>
</svg>
